<?xml version="1.0" encoding="UTF-8" standalone="no"?>
<svg width="361px" height="124px" viewBox="0 0 361 124" version="1.1" xmlns="http://www.w3.org/2000/svg" xmlns:xlink="http://www.w3.org/1999/xlink">
    <!-- Generator: Sketch 40.3 (33839) - http://www.bohemiancoding.com/sketch -->
    <title>Group 2 Copy</title>
    <desc>Created with Sketch.</desc>
    <defs></defs>
    <g id="Page-1" stroke="none" stroke-width="1" fill="none" fill-rule="evenodd">
        <g id="Custom-Preset" transform="translate(-1049.000000, -619.000000)" fill="#FFFFFF">
            <g id="Group-2-Copy" transform="translate(1049.000000, 619.000000)">
                <path d="M25.2693709,44.2901025 C25.1540019,42.6468434 24.4571732,41.3994951 23.1727317,40.5495862 C21.8913667,39.6981486 20.1639082,39.2762514 17.9980476,39.2762514 C16.5136331,39.2762514 15.158432,39.5697451 13.9339824,40.1674329 C12.7064562,40.763592 12.0942314,41.6563021 12.0942314,42.8440345 C12.0942314,44.2625875 12.7064562,45.2974586 13.9339824,45.9486478 C15.158432,46.599837 16.6843793,47.1103938 18.5102859,47.477261 C20.3361926,47.848714 22.3020803,48.200295 24.4125638,48.5411757 C26.5230473,48.8805279 28.4904733,49.4476433 30.31638,50.2409936 C32.1422866,51.0343438 33.6666956,52.1823323 34.8942218,53.6834304 C36.1202096,55.1845285 36.7339727,57.2664996 36.7339727,59.932401 C36.7339727,61.2378366 36.4632401,62.6655613 35.921775,64.2262753 C35.3787715,65.7854607 34.4235163,67.2437577 33.0560091,68.6026948 C31.6869636,69.9646891 29.8041416,71.0989201 27.4106195,72.0053877 C25.0140209,72.9118553 21.9344378,73.3643248 18.1703319,73.3643248 C15.7768098,73.3643248 13.5509573,73.1533762 11.4989274,72.7284217 C9.44535926,72.3034672 7.66252369,71.5804332 6.1504207,70.5608482 C4.63985597,69.5397347 3.39848556,68.2235987 2.43092424,66.606326 C1.4572099,64.9921105 0.857291117,62.9957417 0.62962963,60.6126338 L11.5804548,60.2717531 C11.6942856,62.2574216 12.4634122,63.5903723 13.889373,64.2690765 C15.3137956,64.9477807 16.8843522,65.2886615 18.5948899,65.2886615 C19.2794126,65.2886615 20.0193124,65.2336314 20.8176659,65.1189854 C21.6160193,65.0043394 22.3436131,64.7918622 23.0004473,64.4815537 C23.6542049,64.1697166 24.1987466,63.7447622 24.6248428,63.2066904 C25.0524772,62.6655613 25.2662944,61.9715709 25.2662944,61.121662 C25.2662944,59.7627249 24.6817581,58.7859411 23.5126856,58.189782 C22.3420749,57.5936228 20.8745812,57.1289244 19.1071282,56.7865151 C17.3381369,56.4486916 15.4276263,56.1078109 13.3740582,55.7669301 C11.3220283,55.427578 9.40997943,54.8329475 7.6425264,53.9830386 C5.87507336,53.131601 4.40604147,51.9408114 3.23696896,50.409141 C2.06789646,48.8805279 1.48336021,46.7572842 1.48336021,44.0348241 C1.48336021,42.5046824 1.79716388,40.9745406 2.42477122,39.4443988 C3.05084031,37.9127285 4.01993989,36.5385052 5.33206995,35.3202005 C6.64420001,34.1034245 8.35473767,33.1098259 10.4652212,32.3439907 C12.5741665,31.5796842 15.1122844,31.1975309 18.079575,31.1975309 C23.2681034,31.1975309 27.4475376,32.2171158 30.6117246,34.2578144 C33.7759116,36.298513 35.5310586,39.5009575 35.8725509,43.8651481 L25.2693709,44.2901025 L25.2693709,44.2901025 Z" id="Shape-Copy"></path>
                <path d="M68.3890602,67.5252673 L68.2183141,67.5252673 C66.5631536,69.9664625 64.652643,71.6341795 62.4852441,72.5452329 C60.3163069,73.4501719 58.0935309,73.90417 55.810763,73.90417 C53.3587873,73.90417 51.2467655,73.5342456 49.4808507,72.7974541 C47.7133977,72.0621911 46.2566718,71.0548351 45.1183644,69.7815003 C43.9754422,68.5051083 43.1355559,67.0315252 42.5940907,65.3592225 C42.0510873,63.6869197 41.781893,61.887742 41.781893,59.9601608 L41.781893,32.8395062 L53.0742104,32.8395062 L53.0742104,57.1551556 C53.0742104,58.6287387 53.2711069,59.8470434 53.6695145,60.8100697 C54.0648456,61.7761532 54.6047725,62.5679748 55.2862187,63.1901204 C55.9661266,63.8153232 56.7183325,64.2540351 57.5397598,64.5077849 C58.3627253,64.7661205 59.1995351,64.8929954 60.0501891,64.8929954 C62.3744899,64.8929954 64.2757709,64.0125143 65.7494176,62.2561377 C67.2246025,60.4997612 67.9614258,58.2618716 67.9614258,55.5394115 L67.9614258,32.8395062 L79.2552815,32.8395062 L79.2552815,72.7974541 L68.3905985,72.7974541 L68.3905985,67.5252673 L68.3890602,67.5252673 Z" id="Shape-Copy-2"></path>
                <path d="M87.872428,19.7037037 L99.1662837,19.7037037 L99.1662837,38.7135369 L99.2524259,38.7135369 C101.18601,36.2738703 103.162666,34.5755811 105.182392,33.6125548 C107.200581,32.6464713 109.518728,32.1664868 112.136835,32.1664868 C115.037981,32.1664868 117.639167,32.7336022 119.943471,33.8678332 C122.247774,35.0005356 124.195203,36.5291487 125.788833,38.4567299 C127.380926,40.3843111 128.603837,42.6237294 129.457568,45.1749847 C130.30976,47.7247115 130.738933,50.3906128 130.738933,53.1681029 C130.738933,55.945593 130.282071,58.6099658 129.372964,61.1581639 C128.462318,63.7094192 127.184029,65.9610664 125.533483,67.9192199 C123.882938,69.8727875 121.906282,71.4335015 119.603517,72.5921903 C117.299214,73.7554649 114.754943,74.3378665 111.967628,74.3378665 C109.351059,74.3378665 106.934463,73.8135522 104.714763,72.7664522 C102.495064,71.7162949 100.561479,70.001191 98.9124719,67.6241975 L98.7417258,67.6241975 L98.7417258,73.2326792 L87.8755045,73.2326792 L87.8755045,19.7037037 L87.872428,19.7037037 Z M118.928224,53.4203241 C118.928224,51.8886537 118.714407,50.4318854 118.289849,49.042376 C117.862214,47.6543953 117.251528,46.4039897 116.457789,45.3018596 C115.662512,44.1951437 114.639574,43.3192484 113.39205,42.6650019 C112.14145,42.0138127 110.721642,41.6882181 109.131089,41.6882181 C107.369788,41.6882181 105.853071,42.0138127 104.574782,42.6650019 C103.296494,43.3192484 102.232022,44.1829148 101.37983,45.2590584 C100.527638,46.3352021 99.8877245,47.5672643 99.4616283,48.9552451 C99.0355321,50.346283 98.8217149,51.8030514 98.8217149,53.3347217 C98.8217149,54.9795095 99.0493764,56.5386949 99.5031611,58.012278 C99.9584841,59.4858611 100.610704,60.7607245 101.462896,61.8368681 C102.315088,62.9145404 103.364177,63.7659779 104.616315,64.3881235 C105.865377,65.010269 107.283646,65.3236347 108.8742,65.3236347 C110.521669,65.3236347 111.967628,64.9980401 113.219766,64.3437937 C114.468827,63.6926045 115.517916,62.8289381 116.371647,61.7512658 C117.222301,60.6751221 117.862214,59.4140163 118.289849,57.9679482 C118.715945,56.5218802 118.928224,55.0054959 118.928224,53.4203241 L118.928224,53.4203241 Z" id="Shape-Copy-3"></path>
                <path d="M173.469136,33.1478564 L173.469136,19.7037037 L184.762991,19.7037037 L184.762991,33.1478564 L192.588086,33.1478564 L192.588086,41.9052812 L184.762991,41.9052812 L184.762991,61.1321775 C184.762991,62.4895859 185.132172,63.4036966 185.875149,63.8867384 C186.615048,64.3667229 187.728744,64.6051865 189.213158,64.6051865 C190.239173,64.6051865 191.35133,64.5195842 192.548091,64.3499082 L192.548091,73.1073329 C191.635907,73.2189217 190.509906,73.3213388 189.168549,73.4054125 C187.82873,73.4910148 186.701191,73.5322874 185.792083,73.5322874 C183.964638,73.5322874 182.29871,73.3626113 180.786607,73.0217306 C179.274504,72.6854357 177.976218,72.0908052 176.894826,71.2454821 C175.810357,70.3955732 174.968933,69.2506419 174.369014,67.8091597 C173.769095,66.3692061 173.470674,64.5455706 173.470674,62.3413105" id="Shape-Copy-4"></path>
                <path d="M199.809661,32.3027182 L210.672806,32.3027182 L210.672806,42.4206087 L210.842013,42.4206087 C211.243498,41.0586143 211.857261,39.7134348 212.684841,38.3835413 C213.507806,37.0505906 214.479983,35.8460435 215.59214,34.7683712 C216.705835,33.6937561 217.944129,32.8270325 219.314713,32.1743147 C220.683758,31.5231255 222.137407,31.1975309 223.677199,31.1975309 L224.704752,31.1975309 L224.704752,42.0812565 L223.592595,42.0812565 C221.882057,42.0812565 220.269968,42.391565 218.757865,43.0152392 C217.245762,43.6389133 215.919788,44.4888223 214.778404,45.5664945 C213.63702,46.6411096 212.740218,47.9175016 212.084922,49.3910846 C211.428088,50.8661963 211.098902,52.4804118 211.098902,54.2367884 L211.098902,72.2591375 L199.806584,72.2591375 L199.806584,32.3027182 L199.809661,32.3027182 Z" id="Shape-Copy-5"></path>
                <path d="M256.212589,66.9869507 L256.041843,66.9869507 C254.900459,69.0872652 253.30529,70.6586795 251.251722,71.7073081 C249.198154,72.7574653 246.57697,73.2817797 243.382018,73.2817797 C241.783773,73.2817797 240.159378,73.0677738 238.504217,72.6428194 C236.850595,72.2178649 235.353874,71.5238745 234.012518,70.5608482 C232.672699,69.5962933 231.574386,68.32143 230.719117,66.7347295 C229.863848,65.1480291 229.436214,63.1944614 229.436214,60.8679122 C229.436214,58.3181855 229.962297,56.2331571 231.017538,54.6189416 C232.07278,53.0016689 233.554118,51.7283342 235.464629,50.7928229 C237.376677,49.8603689 239.687134,49.2076511 242.39446,48.8377267 C245.1064,48.4708595 248.115224,48.2858973 251.42093,48.2858973 L255.784955,48.2858973 L255.784955,46.6701532 C255.784955,44.2901025 255.240413,42.4634098 254.160559,41.1870178 C253.076091,39.9121545 251.279411,39.2747228 248.77052,39.2747228 C246.373921,39.2747228 244.591085,39.7547073 243.422013,40.7192622 C242.251402,41.6853457 241.611489,42.9021218 241.49612,44.3757049 L230.717579,44.3757049 C230.774494,42.620857 231.172902,40.9470256 231.912802,39.3587965 C232.652702,37.7751533 233.797162,36.3703578 235.338492,35.1520531 C236.876745,33.9337484 238.814944,32.9691935 241.154628,32.2583884 C243.494311,31.5506405 246.287779,31.1975309 249.538108,31.1975309 C252.843814,31.1975309 255.597288,31.564398 257.792375,32.3027182 C259.990539,33.0379811 261.74261,34.0759094 263.05474,35.4058029 C264.36687,36.7372249 265.279054,38.3544977 265.791292,40.2530352 C266.306607,42.1515727 266.563496,44.2350725 266.563496,46.5004772 L266.563496,66.0560253 C266.563496,67.1321689 266.617334,68.2526424 266.732703,69.4113312 C266.846534,70.5746058 266.988053,71.5238745 267.160338,72.2591375 L256.981716,72.2591375 L256.212589,66.9869507 L256.212589,66.9869507 Z M255.784955,54.7473451 L252.619229,54.7473451 C251.134815,54.7473451 249.696548,54.8176614 248.299814,54.9582938 C246.898465,55.1019834 245.632483,55.3725479 244.489561,55.7669301 C243.348177,56.1658982 242.439069,56.7330136 241.753008,57.4652193 C241.068485,58.2050681 240.728531,59.1665658 240.728531,60.358884 C240.728531,62.2864652 241.323835,63.6026012 242.525211,64.3118777 C243.721972,65.0211542 245.260226,65.3742638 247.144586,65.3742638 C248.22444,65.3742638 249.282758,65.2183453 250.310311,64.9049796 C251.336326,64.5946711 252.263893,64.0994004 253.089935,63.417639 C253.917515,62.7374061 254.572811,61.8752683 255.057361,60.8251111 C255.540372,59.7764824 255.784955,58.4878615 255.784955,56.9577198 L255.784955,54.7473451 L255.784955,54.7473451 Z" id="Shape-Copy-6"></path>
                <polygon id="Shape-Copy-7" points="285.086834 54.8404057 285.000692 54.8404057 285.000692 73.0324309 273.880658 73.0324309 273.880658 19.7037037 285.000692 19.7037037 285.000692 48.8008551 285.086834 48.8008551 297.746658 33.074483 310.409559 33.074483 294.668613 50.8446109 311.777067 73.0324309 298.346577 73.0324309"></polygon>
                <path d="M315.032922,32.9506653 L315.032922,19.7037037 L326.325239,19.7037037 L326.325239,32.9521939 L333.951899,32.9521939 L333.951899,41.7096187 L326.325239,41.7096187 L326.325239,60.9349864 C326.325239,62.2923948 326.692882,63.2065055 327.435858,63.6895473 C328.177296,64.1695318 329.289453,64.4079955 330.773868,64.4079955 C331.799883,64.4079955 332.91204,64.3223931 334.110339,64.1527171 L334.110339,72.9101418 C333.196617,73.0217306 332.070615,73.1241477 330.730797,73.2082214 C329.390978,73.2922951 328.263438,73.3350963 327.354331,73.3350963 C325.525348,73.3350963 323.859419,73.1654202 322.348854,72.8245395 C320.836751,72.4882446 319.538466,71.8936141 318.455535,71.048291 C317.371067,70.1983821 316.531181,69.0534508 315.931262,67.6119686 C315.329805,66.172015 315.03446,64.3483795 315.03446,62.1441194" id="Shape-Copy-8"></path>
                <path d="M156.950461,44.2916312 C156.835092,42.6453148 156.138263,41.4010237 154.85536,40.5511148 C153.570918,39.6996772 151.844998,39.2762514 149.679137,39.2762514 C148.196261,39.2762514 146.84106,39.5697451 145.61661,40.1659043 C144.389084,40.763592 143.776859,41.6563021 143.776859,42.8455631 C143.776859,44.2641161 144.389084,45.2989872 145.61661,45.9486478 C146.84106,46.6013656 148.367007,47.1119224 150.194452,47.4787896 C152.017282,47.848714 153.986247,48.2018236 156.09673,48.5411757 C158.205675,48.8820565 160.173101,49.4491719 161.999008,50.2425222 C163.824915,51.0358724 165.349324,52.1838609 166.57685,53.684959 C167.802838,55.1860571 168.416601,57.2680282 168.416601,59.932401 C168.416601,61.2378366 168.14433,62.6670899 167.604403,64.2278039 C167.0614,65.7869894 166.107683,67.2452863 164.738637,68.6042234 C163.369592,69.9662177 161.48677,71.1004487 159.091709,72.0069163 C156.696649,72.9133839 153.617066,73.3658534 149.85296,73.3658534 C147.4579,73.3658534 145.233585,73.1549048 143.178479,72.7299503 C141.127987,72.3034672 139.343613,71.5804332 137.833049,70.5623769 C136.322484,69.5412633 135.081114,68.2251273 134.112014,66.6078546 C133.141376,64.9921105 132.542996,62.9957417 132.316872,60.6141624 L143.266159,60.2732817 C143.378452,62.2589502 144.150655,63.5919009 145.576616,64.2690765 C147.001038,64.9493093 148.571595,65.2901901 150.282133,65.2901901 C150.966655,65.2901901 151.706555,65.2336314 152.506447,65.120514 C153.3048,65.005868 154.030856,64.7933908 154.689228,64.4815537 C155.344524,64.1712453 155.885989,63.7462908 156.315162,63.208219 C156.741258,62.6670899 156.956614,61.9730995 156.956614,61.1231906 C156.956614,59.7642535 156.372077,58.7874697 155.203005,58.1913106 C154.032394,57.5951515 152.563362,57.1289244 150.797448,56.7880437 C149.028456,56.4502202 147.117946,56.1093395 145.065916,55.7684587 C143.012348,55.427578 141.100299,54.8329475 139.332846,53.98151 C137.563854,53.131601 136.094823,51.94234 134.927288,50.4106696 C133.756678,48.8820565 133.172141,46.7557556 133.172141,44.0363528 C133.172141,42.5046824 133.484407,40.9745406 134.113552,39.4459275 C134.739621,37.9142571 135.708721,36.5400338 137.022389,35.3217292 C138.336058,34.1034245 140.046595,33.1113545 142.15554,32.3439907 C144.264486,31.5812128 146.804142,31.1975309 149.769894,31.1975309 C154.959961,31.1975309 159.137857,32.2186445 162.303582,34.259343 C165.469307,36.3000416 167.222916,39.5024861 167.564408,43.8651481 L156.950461,44.2916312 L156.950461,44.2916312 Z" id="Shape-Copy-9"></path>
                <path d="M88.3662551,113.843621 L78.7201646,113.843621 L78.7201646,123.160494 L74.2427984,123.160494 L74.2427984,100.773663 L78.7201646,100.773663 L78.7201646,109.860082 L88.3662551,109.860082 L88.3662551,100.773663 L92.8106996,100.773663 L92.8106996,123.160494 L88.3662551,123.160494 L88.3662551,113.843621 Z M114.209877,100.773663 L127.773663,100.773663 L127.773663,104.757202 L118.687243,104.757202 L118.687243,109.860082 L127.510288,109.860082 L127.510288,113.843621 L118.687243,113.843621 L118.687243,119.176955 L127.773663,119.176955 L127.773663,123.160494 L114.209877,123.160494 L114.209877,100.773663 Z M156.44856,106.17284 L156.415638,106.17284 L153.584362,114.864198 L159.312757,114.864198 L156.44856,106.17284 Z M160.300412,118.485597 L152.465021,118.485597 L151.016461,123.160494 L146.209877,123.160494 L154.209877,100.773663 L158.917695,100.773663 L166.720165,123.160494 L161.814815,123.160494 L160.300412,118.485597 Z M185.814815,100.773663 L190.292181,100.773663 L190.292181,118.979424 L198.884774,118.979424 L198.884774,123.160494 L185.814815,123.160494 L185.814815,100.773663 Z M219.395062,104.757202 L213.502058,104.757202 L213.502058,100.773663 L229.765432,100.773663 L229.765432,104.757202 L223.872428,104.757202 L223.872428,123.160494 L219.395062,123.160494 L219.395062,104.757202 Z M263.312757,113.843621 L253.666667,113.843621 L253.666667,123.160494 L249.1893,123.160494 L249.1893,100.773663 L253.666667,100.773663 L253.666667,109.860082 L263.312757,109.860082 L263.312757,100.773663 L267.757202,100.773663 L267.757202,123.160494 L263.312757,123.160494 L263.312757,113.843621 Z" id="HEALTH"></path>
                <g id="Group" transform="translate(338.078189, 0.000000)">
                    <rect id="Rectangle-4" x="8.23045267" y="0" width="6.6502057" height="21.345679"></rect>
                    <rect id="Rectangle-4-Copy" transform="translate(11.555556, 10.672840) rotate(-270.000000) translate(-11.555556, -10.672840) " x="8.23045267" y="4.67847069e-14" width="6.6502057" height="21.345679"></rect>
                </g>
            </g>
        </g>
    </g>
</svg>